<svg width="16" height="18" viewBox="0 0 16 18" fill="none" xmlns="http://www.w3.org/2000/svg">
<path d="M11.9147 1.59497C12.3798 1.59497 12.8408 1.56427 13.2963 1.6005C14.5994 1.70419 15.686 2.84066 15.7011 4.15279C15.7248 6.16552 15.7097 8.17926 15.7077 10.1925C15.7072 10.4985 15.4842 10.728 15.1968 10.7416C14.8948 10.7557 14.6563 10.5463 14.6236 10.2353C14.6165 10.1668 14.619 10.0969 14.619 10.0279C14.619 8.12793 14.621 6.22793 14.618 4.32794C14.6165 3.52768 14.1711 2.92521 13.4423 2.72339C13.3457 2.69671 13.2455 2.67155 13.1463 2.67004C12.7382 2.664 12.33 2.66752 11.9097 2.66752C11.8966 2.79385 11.8911 2.91766 11.8694 3.03896C11.7451 3.7295 11.192 4.2303 10.4924 4.23483C8.73685 4.24691 6.9813 4.24791 5.22576 4.23432C4.46425 4.22828 3.87739 3.63538 3.82354 2.87237C3.81901 2.80996 3.817 2.74755 3.81247 2.66047C3.27141 2.68514 2.72884 2.588 2.19986 2.74151C1.57777 2.92219 1.12228 3.52214 1.0951 4.17191C1.09258 4.23483 1.09158 4.29774 1.09158 4.36065C1.09158 7.97844 1.09057 11.5957 1.09208 15.2135C1.09208 16.0535 1.57727 16.6943 2.35237 16.8699C2.51594 16.9072 2.68908 16.9142 2.85819 16.9147C4.60115 16.9177 6.34411 16.9167 8.08708 16.9167C8.16861 16.9167 8.25115 16.9157 8.33219 16.9243C8.61253 16.953 8.81335 17.18 8.81184 17.4608C8.81033 17.7331 8.61404 17.9576 8.34527 17.9913C8.28941 17.9983 8.23203 17.9983 8.17566 17.9983C6.36978 17.9988 4.56391 18.0024 2.75803 17.9973C1.41118 17.9938 0.334094 17.1301 0.059287 15.8371C0.0190222 15.6479 0.00392291 15.4506 0.00392291 15.2568C-0.000606876 11.6149 -0.000606876 7.9719 0.000903053 4.32895C0.00190967 2.77422 1.16556 1.5995 2.72683 1.57332C3.0726 1.56729 3.41888 1.5698 3.76465 1.56728C3.77573 1.56728 3.7868 1.55823 3.80693 1.54967C3.817 1.44951 3.82304 1.34382 3.83914 1.24013C3.95188 0.518388 4.50452 0.0155813 5.23834 0.00752836C6.40854 -0.006061 7.57924 0.00299858 8.74943 0.00249527C9.27791 0.00249527 9.80638 0.00148865 10.3354 0.00249527C11.2796 0.0040052 11.8483 0.548586 11.8956 1.4938C11.8961 1.51242 11.9022 1.53004 11.9147 1.59497ZM7.84649 3.15019C8.69558 3.15019 9.54516 3.1512 10.3942 3.14969C10.6731 3.14919 10.8014 3.02235 10.8029 2.74805C10.8055 2.32678 10.806 1.90501 10.8029 1.48374C10.8014 1.22252 10.6731 1.08763 10.4073 1.08713C8.70866 1.08411 7.00999 1.08411 5.31183 1.08713C5.03853 1.08763 4.9117 1.22503 4.91019 1.49984C4.90817 1.90249 4.90868 2.30514 4.90968 2.70728C4.91019 3.0294 5.03048 3.14969 5.35511 3.15019C6.18557 3.1507 7.01603 3.15019 7.84649 3.15019Z" fill="#A9A9A9"/>
<path d="M14.1893 15.7229C14.6242 16.1543 15.0606 16.5886 15.4989 17.0215C15.657 17.177 15.7471 17.3552 15.6917 17.5801C15.5875 18.0039 15.0938 18.1393 14.7697 17.8263C14.3851 17.4548 14.0107 17.0728 13.6342 16.6928C13.5552 16.6128 13.4852 16.5237 13.4173 16.4462C11.6949 17.484 9.8805 16.7572 9.08477 15.5433C8.24827 14.2679 8.44204 12.5687 9.55738 11.5294C10.6913 10.4719 12.3991 10.3989 13.6241 11.3376C14.7188 12.1766 15.4048 14.0248 14.1893 15.7229ZM13.7464 13.8234C13.7504 12.692 12.8304 11.7649 11.702 11.7639C10.5791 11.7624 9.66408 12.6749 9.65703 13.8023C9.64948 14.9342 10.569 15.8613 11.7 15.8629C12.8183 15.8639 13.7424 14.9433 13.7464 13.8234Z" fill="#A9A9A9"/>
<path d="M7.20641 7.99132C6.25012 7.99132 5.29383 7.99334 4.33754 7.99032C3.94093 7.98931 3.68827 7.68733 3.77182 7.32545C3.82165 7.10953 3.99479 6.94998 4.21574 6.92028C4.28419 6.91122 4.35365 6.90871 4.4226 6.90871C6.27881 6.9082 8.13501 6.9082 9.99072 6.9082C10.041 6.9082 10.0914 6.90871 10.1417 6.91273C10.4578 6.9384 10.6777 7.16992 10.6687 7.46587C10.6596 7.76484 10.4306 7.9878 10.113 7.98931C9.25739 7.99334 8.40177 7.99082 7.54614 7.99082C7.43289 7.99133 7.31965 7.99132 7.20641 7.99132Z" fill="#A9A9A9"/>
<path d="M5.61318 11.0801C5.19141 11.0801 4.77014 11.0821 4.34837 11.0796C3.99555 11.0776 3.75094 10.8516 3.75245 10.535C3.75396 10.2285 3.99454 9.99546 4.33478 9.99395C5.18436 9.98892 6.03395 9.98892 6.88303 9.99445C7.22226 9.99647 7.46184 10.2335 7.45932 10.5405C7.45681 10.8511 7.21723 11.0771 6.8775 11.0796C6.45623 11.0826 6.03496 11.0801 5.61318 11.0801Z" fill="#A9A9A9"/>
</svg>
