<svg width="18" height="18" viewBox="0 0 18 18" fill="none" xmlns="http://www.w3.org/2000/svg">
<path d="M10.6929 0.829546V0.831182H10.6873L7.12669 1.09027H7.10588L7.09856 1.09136H3.09356C3.01897 1.09136 2.94743 1.1201 2.89469 1.17124C2.84194 1.22239 2.81231 1.29176 2.81231 1.36409V1.69245L2.21044 1.77536C2.13681 1.78564 2.07038 1.82377 2.02568 1.88143C1.98098 1.93908 1.96166 2.01156 1.97194 2.083L2.81231 7.76227V15.0005C2.81231 15.0728 2.84194 15.1422 2.89469 15.1933C2.94743 15.2444 3.01897 15.2732 3.09356 15.2732H3.92438L3.96938 15.5786C3.97997 15.65 4.0193 15.7145 4.07875 15.7578C4.13821 15.8011 4.21295 15.8199 4.28663 15.8099L7.00463 15.4319L7.242 15.6937C7.26702 15.7215 7.2976 15.7441 7.33189 15.7601C7.36618 15.7762 7.40347 15.7853 7.44149 15.7869C7.47951 15.7885 7.51748 15.7827 7.5531 15.7696C7.58871 15.7566 7.62123 15.7367 7.64869 15.7112L8.11331 15.2775L8.14425 15.2732H14.3436C14.4182 15.2732 14.4897 15.2444 14.5424 15.1933C14.5952 15.1422 14.6248 15.0728 14.6248 15.0005V14.371L15.4224 14.2603C15.4962 14.25 15.5627 14.2118 15.6074 14.154C15.6521 14.0962 15.6714 14.0236 15.6609 13.9521L14.9314 9.01955C14.9854 8.98136 15.0399 8.94318 15.0906 8.89409L15.2464 8.74246C15.4354 8.55973 15.5895 8.353 15.6908 8.13755L16.3967 6.62991C16.4619 6.49082 16.4923 6.289 16.3388 6.14009C16.271 6.07363 16.1792 6.03547 16.0828 6.03373C15.9966 6.03087 15.9109 6.04828 15.8331 6.08446L14.6248 6.61682V4.11045C14.625 4.10409 14.625 4.09773 14.6248 4.09136V4.08373C14.6248 4.07773 14.6248 4.07118 14.6237 4.06464L14.6226 4.05645C14.6207 4.04131 14.6175 4.02635 14.613 4.01173L14.6108 4.00409C14.6083 3.998 14.6057 3.992 14.6029 3.98609L14.6017 3.985L14.5995 3.97845C14.5967 3.97271 14.5937 3.96707 14.5905 3.96155L14.5866 3.95391L14.5854 3.95173C14.5776 3.93943 14.5688 3.92776 14.559 3.91682L14.5534 3.91027C14.5497 3.90617 14.546 3.90216 14.5421 3.89827L11.7296 1.171C11.6769 1.12002 11.6055 1.09138 11.5311 1.09136H11.3364L10.8302 0.855727C10.7874 0.835931 10.7402 0.826925 10.6929 0.829546ZM3.37481 1.63682H11.2498V4.09136C11.2498 4.1637 11.2794 4.23306 11.3322 4.28421C11.3849 4.33536 11.4565 4.36409 11.5311 4.36409H14.0623V6.88409C13.9343 6.95813 13.8159 7.04676 13.7096 7.14809L13.245 7.59755C13.2338 7.60846 13.2281 7.62373 13.2174 7.63573H3.93731V8.18227H12.6651L11.4563 9.27318H3.93731V9.81864H10.851L9.64275 10.9095H3.93731V11.455H9.03806L7.83094 12.5448H3.93731V13.0914H7.22569L6.13894 14.0715C6.08552 14.1199 6.0536 14.1865 6.04993 14.2572C6.04625 14.328 6.07111 14.3973 6.11925 14.4506L6.36956 14.7277H3.37481V1.63682ZM11.8123 2.02245L13.6646 3.81864H11.8123V2.02245ZM2.81231 2.23955V3.92773L2.56706 2.27445L2.81231 2.23955ZM3.93731 4.36409V4.90955H8.99981V4.36409H3.93731ZM3.93731 6.00045V6.54591H13.2186V6.00045H3.93731ZM15.7324 6.72809L15.1772 7.91173C15.1108 8.05355 14.9949 8.21555 14.8487 8.35682L14.6929 8.50845C14.6344 8.56657 14.5646 8.61291 14.4876 8.64482L13.7237 7.90409L14.1073 7.53318C14.2072 7.43419 14.3238 7.35247 14.4521 7.29155L15.7324 6.72809ZM13.3384 8.32082L14.0303 8.99173L8.40638 14.2445L7.64081 13.4623L13.3384 8.32082ZM14.0623 9.71936V14.7277H8.70113L10.4522 13.0914H13.4998V12.5448H11.0377L12.2044 11.455H13.2186V10.9095H12.7877L14.0623 9.71936ZM14.6248 10.7857L15.0641 13.7595L14.6248 13.8212V10.7857ZM7.22906 13.8337L8.0025 14.6225L7.47038 15.1188L6.72225 14.2908L7.2285 13.8337H7.22906Z" fill="#A9A9A9"/>
</svg>
