<svg width="22" height="21" viewBox="0 0 22 21" fill="none" xmlns="http://www.w3.org/2000/svg">
<path d="M10.2482 11.7119L7.49817 9.52437C7.40457 9.45011 7.34571 9.3434 7.33454 9.22772C7.32336 9.11203 7.36079 8.99685 7.43859 8.9075C7.51638 8.81816 7.62818 8.76197 7.74937 8.7513C7.87057 8.74064 7.99124 8.77636 8.08484 8.85063L10.4773 10.7537L13.8507 6.72875C13.8875 6.6819 13.9339 6.64259 13.987 6.61317C14.0401 6.58374 14.0988 6.5648 14.1598 6.55747C14.2207 6.55013 14.2825 6.55455 14.3416 6.57047C14.4007 6.58638 14.4558 6.61347 14.5037 6.65011C14.5516 6.68676 14.5913 6.73221 14.6205 6.78379C14.6496 6.83537 14.6676 6.89201 14.6734 6.95035C14.6792 7.00869 14.6726 7.06755 14.6541 7.12343C14.6356 7.1793 14.6055 7.23106 14.5657 7.27562L10.899 11.6506C10.8205 11.7405 10.709 11.7984 10.5873 11.8125H10.5415C10.4344 11.8127 10.3306 11.7771 10.2482 11.7119ZM19.7082 15.75V18.375C19.7082 18.6071 19.6116 18.8296 19.4397 18.9937C19.2678 19.1578 19.0346 19.25 18.7915 19.25H3.20817C2.96506 19.25 2.7319 19.1578 2.55999 18.9937C2.38808 18.8296 2.2915 18.6071 2.2915 18.375V15.75C2.2915 15.5179 2.38808 15.2954 2.55999 15.1313C2.7319 14.9672 2.96506 14.875 3.20817 14.875H3.6665V6.5625C3.6665 6.44647 3.71479 6.33519 3.80075 6.25314C3.8867 6.17109 4.00328 6.125 4.12484 6.125C4.24639 6.125 4.36297 6.17109 4.44893 6.25314C4.53488 6.33519 4.58317 6.44647 4.58317 6.5625V14.875H8.24984C8.49295 14.875 8.72611 14.9672 8.89802 15.1313C9.06993 15.2954 9.1665 15.5179 9.1665 15.75V16.625H12.8332V15.75C12.8332 15.5179 12.9297 15.2954 13.1017 15.1313C13.2736 14.9672 13.5067 14.875 13.7498 14.875H17.4165V3.0625C17.4165 2.94647 17.3682 2.83519 17.2823 2.75314C17.1963 2.67109 17.0797 2.625 16.9582 2.625H5.0415C4.91995 2.625 4.80337 2.67109 4.71741 2.75314C4.63146 2.83519 4.58317 2.94647 4.58317 3.0625V4.8125C4.58317 4.92853 4.53488 5.03981 4.44893 5.12186C4.36297 5.20391 4.24639 5.25 4.12484 5.25C4.00328 5.25 3.8867 5.20391 3.80075 5.12186C3.71479 5.03981 3.6665 4.92853 3.6665 4.8125V3.0625C3.6665 2.7144 3.81137 2.38056 4.06923 2.13442C4.32709 1.88828 4.67683 1.75 5.0415 1.75H16.9582C17.3228 1.75 17.6726 1.88828 17.9304 2.13442C18.1883 2.38056 18.3332 2.7144 18.3332 3.0625V14.875H18.7915C19.0346 14.875 19.2678 14.9672 19.4397 15.1313C19.6116 15.2954 19.7082 15.5179 19.7082 15.75ZM18.7915 18.375V15.75H13.7498V16.625C13.7498 16.8571 13.6533 17.0796 13.4814 17.2437C13.3094 17.4078 13.0763 17.5 12.8332 17.5H9.1665C8.92339 17.5 8.69023 17.4078 8.51832 17.2437C8.34642 17.0796 8.24984 16.8571 8.24984 16.625V15.75H3.20817V18.375H18.7915Z" fill="#A9A9A9"/>
</svg>
