<svg width="24" height="23" viewBox="0 0 24 23" fill="none" xmlns="http://www.w3.org/2000/svg">
<path d="M7.22559 6.46875C7.03496 6.46875 6.85214 6.39302 6.71735 6.25823C6.58256 6.12344 6.50684 5.94062 6.50684 5.75V2.875C6.50684 2.68438 6.58256 2.50156 6.71735 2.36677C6.85214 2.23198 7.03496 2.15625 7.22559 2.15625C7.41621 2.15625 7.59903 2.23198 7.73382 2.36677C7.86861 2.50156 7.94434 2.68438 7.94434 2.875V5.75C7.94434 5.94062 7.86861 6.12344 7.73382 6.25823C7.59903 6.39302 7.41621 6.46875 7.22559 6.46875ZM15.8506 6.46875C15.66 6.46875 15.4771 6.39302 15.3424 6.25823C15.2076 6.12344 15.1318 5.94062 15.1318 5.75V2.875C15.1318 2.68438 15.2076 2.50156 15.3424 2.36677C15.4771 2.23198 15.66 2.15625 15.8506 2.15625C16.0412 2.15625 16.224 2.23198 16.3588 2.36677C16.4936 2.50156 16.5693 2.68438 16.5693 2.875V5.75C16.5693 5.94062 16.4936 6.12344 16.3588 6.25823C16.224 6.39302 16.0412 6.46875 15.8506 6.46875Z" fill="#252B42"/>
<path d="M18.7256 20.5938H4.35059C3.29984 20.5938 2.44434 19.7382 2.44434 18.6875V5.75C2.44434 4.69926 3.29984 3.84375 4.35059 3.84375H18.7256C19.7763 3.84375 20.6318 4.69926 20.6318 5.75V18.6875C20.6318 19.7382 19.7763 20.5938 18.7256 20.5938ZM3.66558 19.3725L3.84235 19.1957L3.66558 19.3725C3.84725 19.5542 4.09366 19.6562 4.35059 19.6562H18.7256C18.9825 19.6562 19.2289 19.5542 19.4106 19.3725C19.5923 19.1908 19.6943 18.9444 19.6943 18.6875V5.75C19.6943 5.49307 19.5923 5.24667 19.4106 5.06499C19.2289 4.88331 18.9825 4.78125 18.7256 4.78125H4.35059C4.09366 4.78125 3.84725 4.88331 3.66558 5.06499C3.4839 5.24667 3.38184 5.49307 3.38184 5.75V18.6875C3.38184 18.9444 3.4839 19.1908 3.66558 19.3725Z" stroke="#252B42" stroke-width="0.5"/>
<path d="M7.94434 10.7812H9.38184V12.2188H7.94434V10.7812ZM10.8193 10.7812H12.2568V12.2188H10.8193V10.7812ZM13.6943 10.7812H15.1318V12.2188H13.6943V10.7812ZM16.5693 10.7812H18.0068V12.2188H16.5693V10.7812ZM5.06934 13.6562H6.50684V15.0938H5.06934V13.6562ZM7.94434 13.6562H9.38184V15.0938H7.94434V13.6562ZM10.8193 13.6562H12.2568V15.0938H10.8193V13.6562ZM13.6943 13.6562H15.1318V15.0938H13.6943V13.6562ZM16.5693 13.6562H18.0068V15.0938H16.5693V13.6562ZM5.06934 16.5312H6.50684V17.9688H5.06934V16.5312ZM7.94434 16.5312H9.38184V17.9688H7.94434V16.5312ZM10.8193 16.5312H12.2568V17.9688H10.8193V16.5312Z" fill="#252B42"/>
</svg>
