<svg width="24" height="24" viewBox="0 0 24 24" fill="none" xmlns="http://www.w3.org/2000/svg">
<g clip-path="url(#clip0_654_890)">
<path d="M20.6482 16.0507L14.7221 6.22278C14.4825 5.84792 14.1523 5.53941 13.7621 5.32571C13.3719 5.11201 12.9341 5 12.4892 5C12.0443 5 11.6066 5.11201 11.2163 5.32571C10.8261 5.53941 10.4959 5.84792 10.2563 6.22278L4.33023 16.0507C4.12088 16.3996 4.0071 16.7975 4.00032 17.2044C3.99354 17.6113 4.094 18.0128 4.29159 18.3686C4.52005 18.769 4.85072 19.1016 5.24981 19.3323C5.64891 19.5631 6.10212 19.6838 6.56313 19.682H18.4153C18.8733 19.6869 19.3244 19.5709 19.7233 19.3457C20.1221 19.1205 20.4545 18.7941 20.6868 18.3995C20.8902 18.04 20.9939 17.6327 20.9871 17.2198C20.9803 16.8069 20.8633 16.4032 20.6482 16.0507ZM19.3347 17.6346C19.2419 17.7942 19.1071 17.9253 18.9451 18.0139C18.783 18.1024 18.5998 18.1449 18.4153 18.1368H6.56313C6.37864 18.1449 6.19545 18.1024 6.03338 18.0139C5.87132 17.9253 5.73656 17.7942 5.6437 17.6346C5.57589 17.5171 5.54019 17.3839 5.54019 17.2482C5.54019 17.1126 5.57589 16.9794 5.6437 16.8619L11.5775 7.02632C11.6841 6.88548 11.8219 6.77125 11.9801 6.6926C12.1383 6.61395 12.3126 6.57303 12.4892 6.57303C12.6659 6.57303 12.8401 6.61395 12.9983 6.6926C13.1565 6.77125 13.2943 6.88548 13.4009 7.02632L19.327 16.8542C19.3974 16.9719 19.4353 17.1062 19.4366 17.2433C19.438 17.3805 19.4028 17.5155 19.3347 17.6346Z" fill="#A9A9A9"/>
<path d="M12.4894 16.5912C12.9161 16.5912 13.2621 16.2452 13.2621 15.8185C13.2621 15.3918 12.9161 15.0459 12.4894 15.0459C12.0627 15.0459 11.7168 15.3918 11.7168 15.8185C11.7168 16.2452 12.0627 16.5912 12.4894 16.5912Z" fill="#A9A9A9"/>
<path d="M12.4894 9.6377C12.2845 9.6377 12.088 9.7191 11.9431 9.86399C11.7982 10.0089 11.7168 10.2054 11.7168 10.4103V13.5009C11.7168 13.7058 11.7982 13.9023 11.9431 14.0472C12.088 14.1921 12.2845 14.2735 12.4894 14.2735C12.6943 14.2735 12.8909 14.1921 13.0358 14.0472C13.1807 13.9023 13.2621 13.7058 13.2621 13.5009V10.4103C13.2621 10.2054 13.1807 10.0089 13.0358 9.86399C12.8909 9.7191 12.6943 9.6377 12.4894 9.6377Z" fill="#A9A9A9"/>
</g>
<defs>
<clipPath id="clip0_654_890">
<rect width="24" height="24" fill="white"/>
</clipPath>
</defs>
</svg>
