<svg width="20" height="20" viewBox="0 0 20 20" fill="none" xmlns="http://www.w3.org/2000/svg">
<path d="M18.3182 7.09384V3.31366C18.3182 2.13964 17.7853 1.66504 16.4614 1.66504L13.0975 1.66504C11.7736 1.66504 11.2407 2.13964 11.2407 3.31366V7.08552C11.2407 8.26787 11.7736 8.73414 13.0975 8.73414H16.4614C17.7853 8.74247 18.3182 8.26787 18.3182 7.09384Z" fill="#A9A9A9"/>
<path d="M18.3182 16.4609V13.097C18.3182 11.7731 17.7853 11.2402 16.4614 11.2402H13.0975C11.7736 11.2402 11.2407 11.7731 11.2407 13.097V16.4609C11.2407 17.7848 11.7736 18.3177 13.0975 18.3177H16.4614C17.7853 18.3177 18.3182 17.7848 18.3182 16.4609Z" fill="#A9A9A9"/>
<path d="M8.74247 7.09384V3.31366C8.74247 2.13964 8.20958 1.66504 6.88569 1.66504L3.52182 1.66504C2.19793 1.66504 1.66504 2.13964 1.66504 3.31366L1.66504 7.08552C1.66504 8.26787 2.19793 8.73414 3.52182 8.73414H6.88569C8.20958 8.74247 8.74247 8.26787 8.74247 7.09384Z" fill="#A9A9A9"/>
<path d="M8.74247 16.4609V13.097C8.74247 11.7731 8.20958 11.2402 6.88569 11.2402H3.52182C2.19793 11.2402 1.66504 11.7731 1.66504 13.097L1.66504 16.4609C1.66504 17.7848 2.19793 18.3177 3.52182 18.3177H6.88569C8.20958 18.3177 8.74247 17.7848 8.74247 16.4609Z" fill="#A9A9A9"/>
</svg>
