<svg width="27" height="16" viewBox="0 0 27 16" fill="none" xmlns="http://www.w3.org/2000/svg">
<path d="M24.2299 0.618164H6.24995C4.97395 0.618164 3.92995 1.66255 3.92995 2.93902V3.80935C3.92995 4.12846 4.19095 4.38956 4.50995 4.38956C4.82895 4.38956 5.08995 4.12846 5.08995 3.80935V2.93902C5.08995 2.82298 5.11895 2.70694 5.14795 2.59089L11.644 8.16096L5.14795 13.731C5.11895 13.615 5.08995 13.4989 5.08995 13.3829V12.5126C5.08995 12.1935 4.82895 11.9324 4.50995 11.9324C4.19095 11.9324 3.92995 12.1935 3.92995 12.5126V13.3829C3.92995 14.6594 4.97395 15.7038 6.24995 15.7038H24.2299C25.506 15.7038 26.5499 14.6594 26.5499 13.3829V2.93902C26.5499 1.66255 25.506 0.618164 24.2299 0.618164ZM6.01795 1.8076C6.07595 1.77859 6.16295 1.77859 6.24995 1.77859H24.2299C24.3169 1.77859 24.404 1.77859 24.462 1.8076L15.617 9.37941C15.385 9.55348 15.095 9.55348 14.863 9.37941L6.01795 1.8076ZM24.2299 14.5433H6.24995C6.16295 14.5433 6.07595 14.5433 6.01795 14.5143L12.543 8.91524L14.109 10.2787C14.4279 10.5689 14.834 10.7139 15.24 10.7139C15.646 10.7139 16.052 10.5689 16.371 10.2787L17.937 8.91524L24.462 14.5143C24.404 14.5433 24.3169 14.5433 24.2299 14.5433ZM25.3899 13.3829C25.3899 13.4989 25.361 13.615 25.332 13.731L18.836 8.16096L25.332 2.59089C25.361 2.70694 25.3899 2.82298 25.3899 2.93902V13.3829ZM2.18995 6.71042C2.18995 6.3913 2.45095 6.13021 2.76995 6.13021H6.24995C6.56895 6.13021 6.82995 6.3913 6.82995 6.71042C6.82995 7.02954 6.56895 7.29064 6.24995 7.29064H2.76995C2.45095 7.29064 2.18995 7.02954 2.18995 6.71042ZM6.24995 10.1917H1.02995C0.710951 10.1917 0.449951 9.93061 0.449951 9.6115C0.449951 9.29238 0.710951 9.03128 1.02995 9.03128H6.24995C6.56895 9.03128 6.82995 9.29238 6.82995 9.6115C6.82995 9.93061 6.56895 10.1917 6.24995 10.1917Z" fill="black"/>
</svg>
