<svg width="21" height="20" viewBox="0 0 21 20" fill="none" xmlns="http://www.w3.org/2000/svg">
<path d="M11.5162 9.6875H4.41309C4.33021 9.6875 4.25072 9.72042 4.19212 9.77903C4.13351 9.83763 4.10059 9.91712 4.10059 10C4.10059 10.0829 4.13351 10.1624 4.19212 10.221C4.25072 10.2796 4.33021 10.3125 4.41309 10.3125H10.9756L11.5162 9.6875ZM12.6115 8.4375H4.41309C4.33021 8.4375 4.25072 8.47042 4.19212 8.52903C4.13351 8.58763 4.10059 8.66712 4.10059 8.75C4.10059 8.83288 4.13351 8.91237 4.19212 8.97097C4.25072 9.02958 4.33021 9.0625 4.41309 9.0625H12.0693L12.6115 8.4375Z" fill="#252B42"/>
<path d="M14.7256 19.0625C14.7256 19.1454 14.6927 19.2249 14.6341 19.2835C14.5755 19.3421 14.496 19.375 14.4131 19.375H2.85059C2.76771 19.375 2.68822 19.3421 2.62962 19.2835C2.57101 19.2249 2.53809 19.1454 2.53809 19.0625V0.9375C2.53809 0.85462 2.57101 0.775134 2.62962 0.716529C2.68822 0.657924 2.76771 0.625 2.85059 0.625H9.72559V4.21875C9.72559 4.90938 10.1287 5.3125 10.8193 5.3125H14.7256V6.025L14.8818 5.84375C15.0134 5.69443 15.1726 5.57188 15.3506 5.48281V5.03125L10.0053 0H2.85059C2.60195 0 2.36349 0.098772 2.18767 0.274587C2.01186 0.450403 1.91309 0.68886 1.91309 0.9375V19.0625C1.91309 19.3111 2.01186 19.5496 2.18767 19.7254C2.36349 19.9012 2.60195 20 2.85059 20H14.4131C14.6617 20 14.9002 19.9012 15.076 19.7254C15.2518 19.5496 15.3506 19.3111 15.3506 19.0625V12.3984L14.7256 13.1109V19.0625ZM10.3506 4.21875V1.19062L14.0725 4.6875H10.8193C10.474 4.6875 10.3506 4.56406 10.3506 4.21875Z" fill="#252B42"/>
<path d="M18.1631 7.82969C18.156 7.70754 18.1247 7.58803 18.071 7.47807C18.0174 7.3681 17.9425 7.26987 17.8506 7.18906L16.6803 6.16719C16.5878 6.08475 16.4799 6.02146 16.3629 5.98098C16.2458 5.94049 16.1218 5.92361 15.9982 5.93131C15.8745 5.93901 15.7537 5.97114 15.6425 6.02584C15.5314 6.08054 15.4321 6.15673 15.3506 6.25L7.7803 14.8984C7.74841 14.9349 7.72541 14.9782 7.71312 15.025L6.92405 18.0469C6.9093 18.103 6.91048 18.1622 6.92746 18.2177C6.94445 18.2732 6.97656 18.3229 7.0202 18.3612C7.06385 18.3995 7.11729 18.4249 7.17455 18.4345C7.23181 18.4441 7.29061 18.4376 7.34437 18.4156L10.2397 17.2328C10.2846 17.2147 10.3248 17.1863 10.3569 17.15L17.9319 8.50781C18.0136 8.41584 18.0761 8.30849 18.1158 8.19205C18.1555 8.07561 18.1716 7.95242 18.1631 7.82969ZM8.20843 15.6L9.64593 16.7984L7.68499 17.5984L8.20843 15.6ZM10.1662 16.4172L8.49749 15.0266L14.9444 7.67188L16.6131 9.0625L10.1662 16.4172ZM17.4631 8.09375L17.0256 8.59375L15.3506 7.20156L15.8194 6.66719C15.8738 6.6058 15.9502 6.56828 16.032 6.56273C16.1139 6.55717 16.1946 6.58403 16.2569 6.6375L17.4334 7.65625C17.4939 7.71057 17.5308 7.78632 17.5364 7.86742C17.5419 7.94851 17.5156 8.02858 17.4631 8.09062V8.09375ZM4.84124 4.40469C4.56851 4.55202 4.34098 4.77074 4.183 5.03744C4.02502 5.30414 3.94253 5.60878 3.94437 5.91875V7.1875C3.94437 7.27038 3.97729 7.34987 4.0359 7.40847C4.0945 7.46708 4.17399 7.5 4.25687 7.5C4.33975 7.5 4.41923 7.46708 4.47784 7.40847C4.53644 7.34987 4.56937 7.27038 4.56937 7.1875V5.91875C4.56562 5.69666 4.63096 5.47888 4.75636 5.29554C4.88176 5.1122 5.06103 4.97234 5.26937 4.89531C5.09931 4.75781 4.95445 4.5918 4.84124 4.40469ZM8.63187 7.5C8.71475 7.5 8.79423 7.46708 8.85284 7.40847C8.91144 7.34987 8.94437 7.27038 8.94437 7.1875V5.91875C8.94648 5.60851 8.86413 5.30355 8.70613 5.03655C8.54814 4.76955 8.32045 4.55058 8.04749 4.40313C7.93443 4.59079 7.78956 4.75734 7.61937 4.89531C7.82771 4.97234 8.00697 5.1122 8.13237 5.29554C8.25777 5.47888 8.32311 5.69666 8.31937 5.91875V7.1875C8.31937 7.27038 8.35229 7.34987 8.41089 7.40847C8.4695 7.46708 8.54899 7.5 8.63187 7.5ZM6.44437 2.1875C6.19714 2.1875 5.95546 2.26081 5.7499 2.39816C5.54434 2.53551 5.38413 2.73074 5.28952 2.95915C5.19491 3.18755 5.17015 3.43889 5.21838 3.68136C5.26662 3.92384 5.38567 4.14657 5.56048 4.32138C5.7353 4.4962 5.95803 4.61525 6.2005 4.66348C6.44298 4.71171 6.69431 4.68696 6.92272 4.59235C7.15113 4.49774 7.34635 4.33752 7.4837 4.13196C7.62105 3.9264 7.69437 3.68473 7.69437 3.4375C7.69437 3.10598 7.56267 2.78804 7.32825 2.55362C7.09383 2.3192 6.77589 2.1875 6.44437 2.1875ZM6.44437 4.0625C6.32075 4.0625 6.19991 4.02584 6.09713 3.95717C5.99435 3.88849 5.91425 3.79088 5.86694 3.67668C5.81964 3.56247 5.80726 3.43681 5.83138 3.31557C5.85549 3.19433 5.91502 3.08297 6.00242 2.99556C6.08983 2.90815 6.2012 2.84862 6.32243 2.82451C6.44367 2.80039 6.56934 2.81277 6.68354 2.86008C6.79775 2.90738 6.89536 2.98749 6.96403 3.09027C7.03271 3.19305 7.06937 3.31389 7.06937 3.4375C7.06937 3.60326 7.00352 3.76223 6.88631 3.87944C6.7691 3.99665 6.61013 4.0625 6.44437 4.0625ZM10.4194 10.9375H4.41312C4.33024 10.9375 4.25075 10.9704 4.19215 11.029C4.13354 11.0876 4.10062 11.1671 4.10062 11.25C4.10062 11.3329 4.13354 11.4124 4.19215 11.471C4.25075 11.5296 4.33024 11.5625 4.41312 11.5625H9.87249L10.4194 10.9375ZM9.32405 12.1875H4.41312C4.33024 12.1875 4.25075 12.2204 4.19215 12.279C4.13354 12.3376 4.10062 12.4171 4.10062 12.5C4.10062 12.5829 4.13354 12.6624 4.19215 12.721C4.25075 12.7796 4.33024 12.8125 4.41312 12.8125H8.77718L9.32405 12.1875ZM8.22874 13.4375H4.41312C4.33024 13.4375 4.25075 13.4704 4.19215 13.529C4.13354 13.5876 4.10062 13.6671 4.10062 13.75C4.10062 13.8329 4.13354 13.9124 4.19215 13.971C4.25075 14.0296 4.33024 14.0625 4.41312 14.0625H7.6803L8.22874 13.4375ZM7.10843 14.8672C7.12462 14.8052 7.14713 14.7449 7.17562 14.6875H4.41312C4.33024 14.6875 4.25075 14.7204 4.19215 14.779C4.13354 14.8376 4.10062 14.9171 4.10062 15C4.10062 15.0829 4.13354 15.1624 4.19215 15.221C4.25075 15.2796 4.33024 15.3125 4.41312 15.3125H6.99124L7.10843 14.8672ZM13.1631 15C13.1628 14.9698 13.158 14.9398 13.1491 14.9109L12.7975 15.3125H12.8506C12.9335 15.3125 13.013 15.2796 13.0716 15.221C13.1302 15.1624 13.1631 15.0829 13.1631 15ZM4.10062 16.25C4.10062 16.3329 4.13354 16.4124 4.19215 16.471C4.25075 16.5296 4.33024 16.5625 4.41312 16.5625H6.66468L6.82093 15.9375H4.41312C4.33024 15.9375 4.25075 15.9704 4.19215 16.029C4.13354 16.0876 4.10062 16.1671 4.10062 16.25ZM13.1631 16.25C13.1631 16.1671 13.1302 16.0876 13.0716 16.029C13.013 15.9704 12.9335 15.9375 12.8506 15.9375H12.2491L11.7006 16.5625H12.8506C12.9335 16.5625 13.013 16.5296 13.0716 16.471C13.1302 16.4124 13.1631 16.3329 13.1631 16.25Z" fill="#252B42"/>
</svg>
