<svg width="17" height="17" viewBox="0 0 17 17" fill="none" xmlns="http://www.w3.org/2000/svg">
<g clip-path="url(#clip0_654_903)">
<path d="M14.3525 0.34668H2.64784C1.37721 0.34668 0.347168 1.37673 0.347168 2.64735V14.352C0.347168 15.6226 1.37721 16.6527 2.64784 16.6527H14.3525C15.6231 16.6527 16.6531 15.6226 16.6531 14.352V2.64735C16.6531 1.37673 15.6231 0.34668 14.3525 0.34668Z" stroke="#A9A9A9" stroke-width="0.61237" stroke-miterlimit="10"/>
<path d="M13.2452 4.42773H3.75448C3.39227 4.42773 3.09863 4.72137 3.09863 5.08358V13.3285C3.09863 13.6907 3.39227 13.9844 3.75448 13.9844H13.2452C13.6074 13.9844 13.901 13.6907 13.901 13.3285V5.08358C13.901 4.72137 13.6074 4.42773 13.2452 4.42773Z" stroke="#A9A9A9" stroke-width="0.61237" stroke-linecap="round" stroke-linejoin="round"/>
<path d="M4.76807 3.17871V5.31282M8.50189 3.17871V5.31282M12.2322 3.17871V5.31282M5.72581 9.12646L7.62743 11.0281L11.2745 7.381" stroke="#A9A9A9" stroke-width="0.61237" stroke-linecap="round" stroke-linejoin="round"/>
</g>
<defs>
<clipPath id="clip0_654_903">
<rect width="17" height="17" fill="white"/>
</clipPath>
</defs>
</svg>
