<svg width="18" height="18" viewBox="0 0 18 18" fill="none" xmlns="http://www.w3.org/2000/svg">
<g clip-path="url(#clip0_9528_5483)">
<path d="M11.3909 6.09889L9.9597 5.89105L9.31956 4.59379C9.28497 4.52368 9.22822 4.46698 9.15811 4.43234C8.98201 4.34538 8.76875 4.41766 8.68179 4.59379L8.04165 5.89105L6.61004 6.09889C6.53254 6.11008 6.46091 6.14648 6.40625 6.20255C6.26908 6.34313 6.27189 6.56831 6.41247 6.70544L7.44814 7.71502L7.20354 9.1407C7.20013 9.16052 7.19845 9.18063 7.19845 9.20073C7.19845 9.39714 7.35765 9.55638 7.55405 9.55638C7.61184 9.55594 7.66867 9.54145 7.71963 9.51408L8.99991 8.84236L10.2802 9.51408C10.3494 9.55076 10.4288 9.56356 10.506 9.55056C10.6996 9.51785 10.8301 9.33437 10.7974 9.1407L10.5528 7.71502L11.5885 6.70544C11.6445 6.65078 11.681 6.57914 11.6922 6.50165C11.7201 6.30721 11.5853 6.1269 11.3909 6.09889ZM9.92177 7.33329C9.8375 7.41528 9.79921 7.53359 9.81944 7.64941L9.97354 8.54916L9.16549 8.12437C9.11433 8.098 9.0575 8.08443 8.99991 8.08484C8.94212 8.08528 8.8853 8.09977 8.83433 8.12713L8.02628 8.55193L8.18079 7.65218C8.20101 7.53636 8.16273 7.41805 8.07845 7.33606L7.42487 6.69869L8.32815 6.5675C8.44401 6.55073 8.54418 6.47805 8.59607 6.37311L8.99991 5.55438L9.40375 6.37311C9.4556 6.47805 9.55581 6.55077 9.67167 6.5675L10.5754 6.69632L9.92177 7.33329Z" fill="#A9A9A9"/>
<path d="M8.99996 2.42676C6.44406 2.42676 4.37207 4.49875 4.37207 7.05465C4.37207 9.61055 6.44406 11.6825 8.99996 11.6825C11.5547 11.6797 13.625 9.60938 13.6278 7.05465C13.6278 4.49875 11.5559 2.42676 8.99996 2.42676ZM8.99996 10.9713C6.83687 10.9713 5.08332 9.21774 5.08332 7.05465C5.08332 4.89156 6.83687 3.13801 8.99996 3.13801C11.1621 3.14042 12.9142 4.89256 12.9166 7.05465C12.9166 9.21778 11.163 10.9713 8.99996 10.9713Z" fill="#A9A9A9"/>
<path d="M15.5133 8.01347L14.8479 8.26517C14.9514 8.53899 15.0803 8.87963 15.036 9.01595C14.9862 9.16926 14.6847 9.36566 14.4184 9.53911C14.1023 9.74538 13.7427 9.97931 13.4957 10.3191C13.2487 10.6589 13.1322 11.0798 13.0322 11.4472C12.9532 11.7361 12.856 12.0957 12.7299 12.1873C12.6039 12.279 12.2388 12.2589 11.9397 12.2447C11.5576 12.2265 11.1245 12.2051 10.7171 12.3387C10.322 12.4667 9.9936 12.7338 9.70276 12.9681C9.45343 13.1697 9.1705 13.3981 9.00022 13.3981C8.82994 13.3981 8.54698 13.1697 8.29728 12.9674C8.00644 12.7323 7.67692 12.4659 7.28335 12.3383C7.05814 12.2652 6.80563 12.2313 6.48835 12.2313C6.34175 12.2313 6.19832 12.238 6.06002 12.2447C5.76329 12.2589 5.3942 12.2763 5.27212 12.1874C5.15004 12.0985 5.04847 11.7353 4.96945 11.4465C4.86948 11.0786 4.75647 10.6621 4.50633 10.3183C4.25619 9.97458 3.90018 9.74498 3.58327 9.53834C3.31735 9.3649 3.01585 9.16849 2.96604 9.01519C2.92178 8.87967 3.051 8.53867 3.15454 8.26441C3.29167 7.90206 3.44654 7.49152 3.44654 7.05448C3.44654 6.61745 3.29123 6.2069 3.15414 5.84456C3.0506 5.57074 2.92178 5.2297 2.96564 5.09378C3.01544 4.94047 3.31691 4.74407 3.58327 4.57022C3.89938 4.36394 4.25856 4.13002 4.50593 3.79062C4.7533 3.45119 4.86944 3.02997 4.96945 2.66249C5.04847 2.37362 5.14567 2.01404 5.27172 1.92238C5.39777 1.83072 5.76289 1.85087 6.06002 1.86507C6.44212 1.88325 6.87562 1.9046 7.28496 1.77105C7.68009 1.64303 8.00805 1.37591 8.29928 1.14158C8.54665 0.939279 8.82958 0.711251 8.99986 0.711251C9.17014 0.711251 9.45311 0.939239 9.7024 1.14154C9.99324 1.37663 10.3228 1.64299 10.7167 1.77101C11.1245 1.90336 11.558 1.88281 11.9417 1.86503C12.2384 1.85119 12.6075 1.83381 12.7296 1.92234C12.8516 2.01087 12.9513 2.37318 13.0303 2.66245C13.1302 3.03033 13.2432 3.44682 13.4934 3.79058C13.7435 4.13435 14.0995 4.36435 14.4165 4.57058C14.6824 4.74403 14.9839 4.94043 15.0341 5.09374C15.0783 5.22966 14.9491 5.57066 14.8456 5.84452C14.7085 6.20686 14.5532 6.61781 14.5532 7.05444C14.5532 7.49107 14.7085 7.90202 14.8456 8.26437L15.1783 8.13872L15.511 8.01307C15.3841 7.67801 15.2644 7.36149 15.2644 7.05444C15.2644 6.7474 15.3829 6.43092 15.5106 6.09582C15.6753 5.66116 15.8314 5.24744 15.7101 4.87406C15.5825 4.48169 15.1869 4.22405 14.8044 3.97471C14.5279 3.79335 14.2386 3.60606 14.0683 3.37213C13.898 3.13821 13.8044 2.79958 13.7162 2.47596C13.5918 2.01838 13.4744 1.58608 13.1461 1.34742C12.8177 1.10875 12.3771 1.13247 11.9061 1.15458C11.569 1.1704 11.2201 1.18697 10.936 1.09451C10.6674 1.00718 10.4038 0.794203 10.1493 0.588328C9.79009 0.299141 9.4218 0 8.99982 0C8.57784 0 8.20955 0.299141 7.84997 0.58877C7.5955 0.794645 7.33195 1.00722 7.06323 1.09455C6.77914 1.18661 6.44561 1.1712 6.09317 1.15462C5.62215 1.13251 5.17725 1.11156 4.85283 1.34746C4.5284 1.58335 4.40713 2.01918 4.28264 2.47636C4.19451 2.79998 4.10365 3.13468 3.93056 3.37253C3.75748 3.61039 3.47298 3.79376 3.19443 3.97511C2.81194 4.22445 2.4164 4.48209 2.28878 4.87446C2.16746 5.24788 2.32354 5.65999 2.48832 6.09662C2.61477 6.43172 2.73448 6.7482 2.73448 7.05484C2.73448 7.36149 2.61593 7.67797 2.48832 8.01347C2.32354 8.44813 2.16746 8.86225 2.28878 9.23523C2.4164 9.628 2.81194 9.88564 3.19443 10.135C3.47102 10.3163 3.76029 10.5036 3.93016 10.7376C4.10008 10.9715 4.19411 11.3101 4.28224 11.6337C4.35809 11.9135 4.43201 12.1838 4.55292 12.4062L3.11224 16.0905C3.04081 16.2735 3.13122 16.4797 3.31418 16.5512C3.36868 16.5724 3.4276 16.5799 3.48567 16.573L5.50087 16.332L6.81711 17.8754C6.94468 18.0247 7.16918 18.0423 7.31851 17.9147C7.36342 17.8764 7.39805 17.8274 7.41932 17.7723L8.85567 14.0974C8.9513 14.1134 9.0489 14.1134 9.14453 14.0974L10.5805 17.7723C10.652 17.9552 10.8583 18.0454 11.0412 17.9739C11.0958 17.9525 11.1442 17.918 11.1823 17.8734L12.4985 16.33L14.5137 16.571C14.7088 16.5941 14.8856 16.4547 14.9087 16.2596C14.9155 16.2024 14.9082 16.1444 14.8876 16.0905L13.4463 12.4055C13.5672 12.183 13.6407 11.9127 13.717 11.633C13.8047 11.3094 13.8956 10.9747 14.0691 10.7368C14.2425 10.4989 14.5267 10.3156 14.8052 10.1342C15.1877 9.88488 15.5836 9.62724 15.7109 9.23487C15.8322 8.86145 15.6765 8.4497 15.5133 8.01347ZM6.97153 16.9618L5.91768 15.7254C5.84038 15.6349 5.72292 15.5891 5.60473 15.6033L3.99096 15.7966L5.12464 12.897C5.40716 12.9871 5.74262 12.9713 6.09273 12.9547C6.22312 12.9484 6.35788 12.9421 6.48787 12.9421C6.72809 12.9421 6.91105 12.965 7.06319 13.0144C7.33187 13.1017 7.59506 13.3143 7.84993 13.5206C7.96848 13.6158 8.08703 13.7119 8.20871 13.7972L6.97153 16.9618ZM14.0086 15.7966L12.3952 15.6033C12.277 15.5892 12.1595 15.6352 12.0823 15.7258L11.028 16.9622L9.79005 13.7979C9.91177 13.7118 10.0311 13.6158 10.1488 13.5214C10.4033 13.3155 10.6668 13.1029 10.9356 13.0156C11.2193 12.9235 11.5524 12.9389 11.906 12.9555C12.2597 12.9721 12.5916 12.9875 12.8741 12.8978L14.0086 15.7966Z" fill="#A9A9A9"/>
</g>
<defs>
<clipPath id="clip0_9528_5483">
<rect width="18" height="18" fill="white"/>
</clipPath>
</defs>
</svg>
