<svg width="24" height="23" viewBox="0 0 24 23" fill="none" xmlns="http://www.w3.org/2000/svg">
<path d="M4.55183 21.7346H18.5243C18.7746 21.7345 19.0146 21.635 19.1917 21.458C19.3687 21.281 19.4682 21.041 19.4685 20.7907V2.20857C19.4682 1.9583 19.3687 1.71835 19.1917 1.54139C19.0148 1.36442 18.7748 1.26489 18.5246 1.26465H4.55183C4.30156 1.26489 4.06161 1.36442 3.88465 1.54139C3.70768 1.71835 3.60815 1.9583 3.60791 2.20857V20.7907C3.60815 21.041 3.70768 21.2809 3.88465 21.4579C4.06161 21.6349 4.30156 21.7344 4.55183 21.7346ZM15.555 1.95465V2.62464C15.5549 2.68942 15.5291 2.75152 15.4833 2.7973C15.4374 2.84309 15.3753 2.86884 15.3105 2.8689H7.76562C7.70084 2.86884 7.63872 2.84309 7.59289 2.7973C7.54706 2.75152 7.52125 2.68942 7.52113 2.62464V1.95465H15.555ZM4.29768 2.20857C4.29774 2.1412 4.32454 2.07662 4.3722 2.02901C4.41986 1.98139 4.48447 1.95465 4.55183 1.95465H6.83113V2.62464C6.83143 2.87237 6.92999 3.10986 7.10519 3.285C7.28038 3.46015 7.51789 3.55866 7.76562 3.5589H15.3105C15.5583 3.55866 15.7958 3.46015 15.971 3.285C16.1462 3.10986 16.2447 2.87237 16.245 2.62464V1.95465H18.5243C18.5917 1.95471 18.6562 1.98148 18.7038 2.02909C18.7514 2.07669 18.7782 2.14124 18.7782 2.20857V20.7907C18.7782 20.8581 18.7514 20.9226 18.7038 20.9702C18.6562 21.0178 18.5917 21.0446 18.5243 21.0446H4.55183C4.48447 21.0446 4.41986 21.0179 4.3722 20.9703C4.32454 20.9227 4.29774 20.8581 4.29768 20.7907V2.20857Z" fill="#252B42"/>
<path d="M13.369 14.4432L11.2183 17.0693L9.66857 15.6981C9.60001 15.6374 9.51016 15.6065 9.41881 15.6121C9.32745 15.6177 9.24207 15.6594 9.18143 15.728C9.1208 15.7965 9.08988 15.8864 9.09549 15.9777C9.1011 16.0691 9.14277 16.1545 9.21133 16.2151L11.0295 17.8235C11.0925 17.8793 11.1739 17.9102 11.2581 17.9102C11.2673 17.9102 11.2765 17.9097 11.2857 17.9091C11.3319 17.9053 11.377 17.8923 11.4181 17.8707C11.4592 17.8492 11.4955 17.8196 11.5249 17.7837L13.9031 14.8806C13.9611 14.8098 13.9886 14.7189 13.9796 14.6278C13.9705 14.5367 13.9256 14.4529 13.8548 14.3949C13.784 14.3369 13.693 14.3094 13.6019 14.3184C13.5108 14.3275 13.4271 14.3724 13.369 14.4432ZM7.31912 6.50934H13.3389C13.4304 6.50934 13.5182 6.47299 13.5829 6.40829C13.6476 6.34359 13.6839 6.25584 13.6839 6.16434C13.6839 6.07284 13.6476 5.98508 13.5829 5.92038C13.5182 5.85568 13.4304 5.81934 13.3389 5.81934H7.31912C7.22762 5.81934 7.13987 5.85568 7.07517 5.92038C7.01047 5.98508 6.97412 6.07284 6.97412 6.16434C6.97412 6.25584 7.01047 6.34359 7.07517 6.40829C7.13987 6.47299 7.22762 6.50934 7.31912 6.50934ZM7.31912 8.28379H15.7569C15.8484 8.28379 15.9362 8.24744 16.0009 8.18274C16.0656 8.11804 16.1019 8.03029 16.1019 7.93879C16.1019 7.84729 16.0656 7.75953 16.0009 7.69483C15.9362 7.63013 15.8484 7.59379 15.7569 7.59379H7.31912C7.22762 7.59379 7.13987 7.63013 7.07517 7.69483C7.01047 7.75953 6.97412 7.84729 6.97412 7.93879C6.97412 8.03029 7.01047 8.11804 7.07517 8.18274C7.13987 8.24744 7.22762 8.28379 7.31912 8.28379ZM7.31912 10.058H15.7569C15.8484 10.058 15.9362 10.0217 16.0009 9.95696C16.0656 9.89226 16.1019 9.80451 16.1019 9.71301C16.1019 9.62151 16.0656 9.53375 16.0009 9.46905C15.9362 9.40435 15.8484 9.36801 15.7569 9.36801H7.31912C7.22762 9.36801 7.13987 9.40435 7.07517 9.46905C7.01047 9.53375 6.97412 9.62151 6.97412 9.71301C6.97412 9.80451 7.01047 9.89226 7.07517 9.95696C7.13987 10.0217 7.22762 10.058 7.31912 10.058Z" fill="#252B42"/>
</svg>
