<svg width="18" height="18" viewBox="0 0 18 18" fill="none" xmlns="http://www.w3.org/2000/svg">
<g clip-path="url(#clip0_9528_5496)">
<path d="M15.5006 5.36396C15.2378 5.95536 15.2251 6.70822 15.2117 7.50528C15.1973 8.3587 15.1827 9.22561 14.9086 10.0097C14.6012 9.90497 14.1411 9.8882 13.4539 10.0584C12.5945 10.2712 11.6609 10.7107 10.9568 11.2339C10.0216 11.9288 9.52734 12.7267 9.52734 13.5413V17.9999H13.7812V17.4726C13.7812 16.2449 14.294 15.8612 15.0701 15.2805C16.7289 14.0393 18 12.6082 18 7.9453V4.25391H17.4726C16.4915 4.25394 15.828 4.6274 15.5006 5.36396ZM16.9453 7.94533C16.9453 12.5603 15.6134 13.5568 14.4383 14.4361C13.6868 14.9983 12.9126 15.5776 12.7554 16.9453H10.582V13.5413C10.582 13.021 11.0431 12.4224 11.847 11.899C12.831 11.2583 13.8771 10.9939 14.3512 10.9822C14.2787 11.0838 14.1575 11.2285 13.955 11.4237C13.5968 11.735 13.1347 12.0108 12.5377 12.2399L12.9154 13.2246C13.4962 13.0018 14.2276 12.6229 14.6734 12.1966C15.1787 11.7493 15.5562 11.2138 15.8134 10.583C16.232 9.55622 16.2502 8.47605 16.2662 7.52304C16.29 6.10997 16.3731 5.54055 16.9453 5.36934V7.94533Z" fill="#A9A9A9"/>
<path d="M2.92988 15.2805C3.70602 15.8613 4.21877 16.2449 4.21877 17.4726V18H8.47266V13.5413C8.47266 12.7269 7.97819 11.9292 7.04265 11.2342C6.33819 10.7109 5.40451 10.2714 4.54505 10.0586C3.85828 9.88855 3.39868 9.90529 3.09138 10.0098C2.81731 9.22572 2.80268 8.35866 2.7883 7.50525C2.76425 6.07759 2.77195 4.25391 0.527342 4.25391H0V7.9453C3.51561e-05 12.4801 1.19204 13.9802 2.92988 15.2805ZM1.05472 5.3693C1.62688 5.54051 1.70999 6.10994 1.73376 7.523C1.74983 8.47602 1.76804 9.55619 2.1866 10.583C2.44377 11.2137 2.82124 11.7493 3.32658 12.1965C3.77229 12.6229 4.50417 13.0019 5.08459 13.2246L5.46231 12.2398C4.86532 12.0108 4.40309 11.7349 4.04492 11.4237C3.84274 11.2287 3.72145 11.084 3.64896 10.9825C4.12346 10.9945 5.16995 11.2594 6.15404 11.9004C6.95729 12.4237 7.41797 13.0217 7.41797 13.5413V16.9453H5.24462C5.08744 15.5775 4.3132 14.9983 3.56174 14.436C2.38664 13.5568 1.05472 12.5602 1.05472 7.9453V5.3693Z" fill="#A9A9A9"/>
<path d="M7.33467 9.14462C8.56341 10.1852 8.70428 10.3199 9.00001 10.5751C9.37189 10.2541 9.40325 10.2135 10.6654 9.14462C12.9954 7.17127 14.8359 5.61259 14.8359 3.75821C14.8359 1.79228 13.4224 5.52696e-05 11.6068 5.52696e-05C11.6047 5.52696e-05 11.6024 5.52696e-05 11.6002 5.52696e-05C10.6896 0.00230526 9.78368 0.495757 8.99987 1.40416C8.20633 0.485421 7.28707 -0.00767908 6.35859 9.04257e-05C4.52791 0.0163325 3.16406 1.81685 3.16406 3.75824C3.1641 5.61259 5.00459 7.17123 7.33467 9.14462ZM6.36798 1.0547C6.37251 1.05467 6.37691 1.05463 6.38144 1.05463C7.11835 1.05463 7.89361 1.59112 8.56576 2.56677L9.00005 3.19708L9.43433 2.56677C10.1048 1.59351 10.875 1.05653 11.6029 1.05474H11.6069C12.8236 1.05474 13.7813 2.37534 13.7813 3.75821C13.7813 5.12371 12.1055 6.54296 9.98382 8.33979C9.66348 8.61109 9.33498 8.88928 9.00008 9.17766C8.66518 8.88928 8.33669 8.61109 8.01634 8.33979C5.89467 6.54296 4.21885 5.12371 4.21885 3.75821C4.21878 2.30306 5.20298 1.06504 6.36798 1.0547Z" fill="#A9A9A9"/>
<path d="M8.47266 7.41797H9.52734V6.36328H10.582V5.30859H9.52734V4.25391H8.47266V5.30859H7.41797V6.36328H8.47266V7.41797Z" fill="#A9A9A9"/>
</g>
<defs>
<clipPath id="clip0_9528_5496">
<rect width="18" height="18" fill="white"/>
</clipPath>
</defs>
</svg>
