<svg width="15" height="18" viewBox="0 0 15 18" fill="none" xmlns="http://www.w3.org/2000/svg">
<path d="M12.3028 0C12.4151 0.0281739 12.5278 0.0544696 12.6391 0.0854609C13.6679 0.369548 14.3849 1.29037 14.406 2.36238C14.4145 2.78405 14.4084 3.20572 14.4084 3.62739C14.4084 7.59287 14.4093 11.5583 14.4079 15.5243C14.4074 16.7292 13.6557 17.6876 12.509 17.9416C12.3334 17.9806 12.1493 17.997 11.969 17.997C8.79378 18.0003 5.61811 18.0008 2.44291 17.9989C1.06286 17.998 0.0039913 16.9433 0.00258261 15.5619C-0.000704348 11.9594 -0.00117391 8.35685 0.00305217 4.75482C0.0039913 3.7969 0.381522 3.00616 1.11827 2.39103C1.7705 1.8468 2.42789 1.30915 3.07636 0.761165C3.54498 0.365791 4.07183 0.10847 4.6818 0.0277043C4.7034 0.024887 4.72312 0.0093913 4.74331 0C7.263 0 9.78315 0 12.3028 0ZM13.203 9.01753C13.203 6.84391 13.2044 4.67076 13.2021 2.49715C13.2011 1.70264 12.6987 1.20303 11.9042 1.20209C9.66576 1.19927 7.42782 1.20021 5.1894 1.19504C4.70011 1.1941 4.27281 1.34155 3.89622 1.65475C3.2299 2.2093 2.5589 2.7587 1.88836 3.30809C1.43382 3.68092 1.20091 4.16176 1.20044 4.74636C1.19763 8.34323 1.19763 11.9406 1.19997 15.5374C1.20044 16.2808 1.72119 16.7963 2.46404 16.7968C5.62234 16.7982 8.78016 16.7978 11.9385 16.7954C12.0657 16.7954 12.1972 16.7799 12.3197 16.7466C12.8766 16.5949 13.2021 16.1272 13.2025 15.4848C13.2035 13.3291 13.203 11.1733 13.203 9.01753Z" fill="#A9A9A9"/>
<path d="M7.20245 13.2007C8.40876 13.2007 9.61507 13.2011 10.8214 13.2002C11.1914 13.1997 11.4609 13.4495 11.4619 13.798C11.4623 14.1459 11.1956 14.4018 10.8251 14.4018C9.78881 14.4028 8.75201 14.4013 7.71568 14.4013C6.34549 14.4013 4.9753 14.4013 3.60464 14.4018C3.2196 14.4018 2.94819 14.1548 2.94678 13.8017C2.94584 13.4462 3.21819 13.1997 3.60088 13.2007C4.80156 13.2025 6.00177 13.2011 7.20245 13.2011V13.2007Z" fill="#A9A9A9"/>
<path d="M7.25601 11.3985C6.0666 11.3985 4.87673 11.4004 3.68732 11.3975C3.19709 11.3961 2.90314 10.9101 3.14356 10.5026C3.26706 10.2931 3.45817 10.1997 3.7014 10.2002C4.58043 10.202 5.45946 10.2011 6.33848 10.2006C7.83264 10.2002 9.32726 10.1997 10.8214 10.1992C11.1914 10.1992 11.461 10.4514 11.4624 10.7993C11.4633 11.1506 11.2018 11.3985 10.8252 11.3985C9.63577 11.3994 8.44589 11.399 7.25648 11.399C7.25601 11.399 7.25601 11.399 7.25601 11.3985Z" fill="#A9A9A9"/>
<path d="M10.2001 5.97587C10.2001 6.56094 10.2015 7.14602 10.1996 7.7311C10.1987 8.12413 9.95684 8.39507 9.60936 8.39835C9.25813 8.40211 9.00315 8.12178 9.00268 7.725C9.00128 6.5431 9.00128 5.36121 9.00175 4.17884C9.00175 3.80976 9.25719 3.54352 9.60655 3.54493C9.95684 3.54587 10.2005 3.80788 10.201 4.18448C10.2015 4.78129 10.201 5.37811 10.201 5.97493C10.2005 5.97587 10.2005 5.97587 10.2001 5.97587Z" fill="#A9A9A9"/>
<path d="M6.60444 6.61588C6.60444 6.23553 6.60256 5.85471 6.6049 5.47437C6.60678 5.12172 6.87209 4.85031 7.20736 4.85454C7.53746 4.85877 7.79948 5.12501 7.80089 5.46779C7.80324 6.23459 7.8037 7.00139 7.80089 7.76819C7.79948 8.126 7.53887 8.39647 7.20548 8.39788C6.87021 8.39976 6.60866 8.1307 6.60584 7.7743C6.60162 7.38831 6.60444 7.00186 6.60444 6.61588Z" fill="#A9A9A9"/>
<path d="M5.40051 6.85946C5.40051 7.16985 5.40802 7.4807 5.39863 7.79108C5.38877 8.11179 5.18451 8.34141 4.88493 8.39259C4.62103 8.43767 4.33788 8.27332 4.24444 8.00896C4.21392 7.92303 4.20453 7.82583 4.20359 7.73379C4.19936 7.14214 4.19842 6.55049 4.19983 5.95837C4.20077 5.60666 4.45011 5.34606 4.78444 5.33995C5.12957 5.33385 5.39206 5.58929 5.40192 5.94522C5.40614 6.09736 5.40145 6.24997 5.40145 6.40211C5.40145 6.55425 5.40145 6.70686 5.40145 6.85899C5.40098 6.85946 5.40051 6.85946 5.40051 6.85946Z" fill="#A9A9A9"/>
</svg>
