<svg width="18" height="18" viewBox="0 0 18 18" fill="none" xmlns="http://www.w3.org/2000/svg">
<path d="M9.56391 18C9.18868 18 8.81392 18 8.43869 18C8.22501 17.9737 8.01086 17.9507 7.79812 17.9206C6.13189 17.6849 4.63754 17.0453 3.33809 15.9764C1.61457 14.5591 0.53819 12.751 0.138539 10.5503C0.0793666 10.2235 0.0455536 9.89193 0 9.56272C0 9.18749 0 8.81273 0 8.4375C0.0145584 8.32197 0.0305256 8.20691 0.0432055 8.09139C0.238569 6.304 0.889 4.70117 2.04005 3.32C3.76639 1.24848 5.98584 0.127491 8.6843 0.00914544C10.436 -0.067873 12.0877 0.340701 13.5773 1.26774C16.3894 3.01756 17.8904 5.55823 17.9951 8.87895C18.0481 10.5499 17.6194 12.1184 16.7525 13.5489C15.3271 15.9003 13.2584 17.3463 10.5511 17.8624C10.2251 17.9239 9.89311 17.9549 9.56391 18ZM9.00552 1.50349C4.88363 1.49786 1.52018 4.85332 1.50374 8.98696C1.4873 13.1079 4.86296 16.4906 8.99754 16.4963C13.1194 16.5019 16.4829 13.146 16.4989 9.01232C16.5148 4.88996 13.141 1.50913 9.00552 1.50349Z" fill="#A9A9A9"/>
<path d="M8.25405 3.00488C8.75936 3.00488 9.23791 3.00488 9.73712 3.00488C9.74088 3.08049 9.74792 3.15375 9.74792 3.22655C9.74839 4.98341 9.7498 6.74028 9.74558 8.49714C9.74511 8.63662 9.78268 8.73571 9.88271 8.8348C10.8929 9.83745 11.8979 10.8453 12.9047 11.8512C12.9498 11.8963 13.0029 11.9343 13.0395 11.9653C12.6793 12.3255 12.337 12.6674 11.9838 13.0206C11.9636 13.0023 11.9209 12.9666 11.8814 12.9271C10.7092 11.7554 9.53612 10.5846 8.36817 9.40822C8.30665 9.34623 8.25874 9.23962 8.25874 9.15368C8.25264 7.16247 8.25405 5.17126 8.25405 3.18005C8.25405 3.12792 8.25405 3.0758 8.25405 3.00488Z" fill="#A9A9A9"/>
</svg>
